<svg xmlns="http://www.w3.org/2000/svg" viewBox="25 30 935 1215" width="935" height="1215" aria-hidden="true"><style>
svg{fill:none}
.walls{stroke:#32312F;stroke-width:1.2px;fill:rgba(50,49,47,.05)}
.glass{stroke:#A39A8E;stroke-width:1px}
.fix{stroke:#32312F;stroke-opacity:.8;stroke-width:.9px}
.furn{stroke:#32312F;stroke-opacity:.6;stroke-width:.85px}
.soft{stroke:#A39A8E;stroke-opacity:.85;stroke-width:.85px}
*{vector-effect:non-scaling-stroke}
</style><g class="walls"><rect x="40" y="40" width="400" height="10"/><rect x="40" y="40" width="10" height="275"/><rect x="40" y="305" width="110" height="10"/><rect x="140" y="305" width="10" height="560"/><rect x="35" y="860" width="115" height="10"/><rect x="35" y="860" width="10" height="270"/><rect x="430" y="40" width="10" height="265"/><rect x="405" y="300" width="10" height="350"/><rect x="405" y="650" width="10" height="125"/><rect x="375" y="770" width="40" height="8"/><rect x="375" y="770" width="8" height="95"/><rect x="375" y="860" width="30" height="8"/><rect x="395" y="860" width="10" height="170"/><rect x="35" y="1120" width="370" height="8"/><rect x="90" y="1025" width="315" height="6"/><rect x="45" y="90" width="325" height="6"/><rect x="365" y="45" width="6" height="105"/><rect x="365" y="150" width="70" height="6"/><rect x="110" y="95" width="6" height="120"/><rect x="45" y="215" width="70" height="6"/><rect x="240" y="95" width="6" height="150"/><rect x="150" y="300" width="110" height="6"/><rect x="215" y="865" width="6" height="160"/><rect x="238" y="636" width="172" height="12"/><rect x="305" y="775" width="6" height="90"/><rect x="50" y="1128" width="28" height="105"/><g transform="translate(490 0)"><rect x="90" y="40" width="350" height="10"/><rect x="90" y="40" width="10" height="280"/><rect x="90" y="315" width="105" height="10"/><rect x="185" y="315" width="10" height="555"/><rect x="85" y="868" width="110" height="8"/><rect x="85" y="868" width="10" height="265"/><rect x="435" y="40" width="10" height="280"/><rect x="455" y="318" width="10" height="462"/><rect x="420" y="775" width="45" height="8"/><rect x="420" y="775" width="8" height="95"/><rect x="420" y="865" width="25" height="8"/><rect x="438" y="865" width="8" height="168"/><rect x="85" y="1128" width="360" height="8"/><rect x="140" y="1030" width="305" height="6"/><rect x="95" y="95" width="325" height="6"/><rect x="415" y="45" width="6" height="275"/><rect x="415" y="165" width="30" height="6"/><rect x="160" y="95" width="6" height="120"/><rect x="95" y="215" width="70" height="6"/><rect x="290" y="95" width="6" height="150"/><rect x="195" y="300" width="225" height="6"/><rect x="240" y="305" width="6" height="130"/><rect x="240" y="430" width="220" height="6"/><rect x="285" y="436" width="6" height="215"/><rect x="285" y="645" width="175" height="10"/><rect x="190" y="868" width="6" height="162"/><rect x="90" y="1030" width="55" height="6"/><rect x="98" y="1136" width="30" height="100"/></g></g><g class="fix"><rect x="70" y="55" width="32" height="20" rx="2"/><line x1="73" y1="65.0" x2="99" y2="65.0"/><rect x="120" y="55" width="32" height="20" rx="2"/><line x1="123" y1="65.0" x2="149" y2="65.0"/><rect x="170" y="55" width="32" height="20" rx="2"/><line x1="173" y1="65.0" x2="199" y2="65.0"/><rect x="218" y="55" width="32" height="20" rx="2"/><line x1="221" y1="65.0" x2="247" y2="65.0"/><rect x="380" y="60" width="45" height="20"/><line x1="385" y1="62" x2="385" y2="78"/><line x1="390" y1="62" x2="390" y2="78"/><line x1="395" y1="62" x2="395" y2="78"/><line x1="400" y1="62" x2="400" y2="78"/><line x1="405" y1="62" x2="405" y2="78"/><line x1="410" y1="62" x2="410" y2="78"/><line x1="415" y1="62" x2="415" y2="78"/><line x1="420" y1="62" x2="420" y2="78"/><rect x="410" y="95" width="20" height="45"/><rect x="55" y="185" width="22" height="14" rx="3"/><ellipse cx="66.0" cy="192.0" rx="6.6" ry="3.9200000000000004"/><g transform="translate(98 160) rotate(-90)"><ellipse cx="0" cy="0" rx="7" ry="9"/><rect x="-8" y="-17" width="16" height="7" rx="2"/></g><line x1="60" y1="110" x2="108" y2="110"/><rect x="50" y="98" width="55" height="55"/><rect x="245" y="100" width="25" height="145"/><line x1="247" y1="107" x2="268" y2="107"/><line x1="247" y1="114" x2="268" y2="114"/><line x1="247" y1="121" x2="268" y2="121"/><line x1="247" y1="128" x2="268" y2="128"/><line x1="247" y1="135" x2="268" y2="135"/><line x1="247" y1="142" x2="268" y2="142"/><line x1="247" y1="149" x2="268" y2="149"/><line x1="247" y1="156" x2="268" y2="156"/><line x1="247" y1="163" x2="268" y2="163"/><line x1="247" y1="170" x2="268" y2="170"/><line x1="247" y1="177" x2="268" y2="177"/><line x1="247" y1="184" x2="268" y2="184"/><line x1="247" y1="191" x2="268" y2="191"/><line x1="247" y1="198" x2="268" y2="198"/><line x1="247" y1="205" x2="268" y2="205"/><line x1="247" y1="212" x2="268" y2="212"/><line x1="247" y1="219" x2="268" y2="219"/><line x1="247" y1="226" x2="268" y2="226"/><line x1="247" y1="233" x2="268" y2="233"/><line x1="247" y1="240" x2="268" y2="240"/><rect x="55" y="275" width="85" height="25"/><line x1="62" y1="277" x2="62" y2="298"/><line x1="69" y1="277" x2="69" y2="298"/><line x1="76" y1="277" x2="76" y2="298"/><line x1="83" y1="277" x2="83" y2="298"/><line x1="90" y1="277" x2="90" y2="298"/><line x1="97" y1="277" x2="97" y2="298"/><line x1="104" y1="277" x2="104" y2="298"/><line x1="111" y1="277" x2="111" y2="298"/><line x1="118" y1="277" x2="118" y2="298"/><line x1="125" y1="277" x2="125" y2="298"/><line x1="132" y1="277" x2="132" y2="298"/><rect x="320" y="155" width="112" height="38"/><line x1="327" y1="157" x2="327" y2="191"/><line x1="334" y1="157" x2="334" y2="191"/><line x1="341" y1="157" x2="341" y2="191"/><line x1="348" y1="157" x2="348" y2="191"/><line x1="355" y1="157" x2="355" y2="191"/><line x1="362" y1="157" x2="362" y2="191"/><line x1="369" y1="157" x2="369" y2="191"/><line x1="376" y1="157" x2="376" y2="191"/><line x1="383" y1="157" x2="383" y2="191"/><line x1="390" y1="157" x2="390" y2="191"/><line x1="397" y1="157" x2="397" y2="191"/><line x1="404" y1="157" x2="404" y2="191"/><line x1="411" y1="157" x2="411" y2="191"/><line x1="418" y1="157" x2="418" y2="191"/><line x1="425" y1="157" x2="425" y2="191"/><rect x="380" y="240" width="50" height="55"/><rect x="395" y="255" width="22" height="14" rx="3"/><ellipse cx="406.0" cy="262.0" rx="6.6" ry="3.9200000000000004"/><rect x="262" y="300" width="85" height="48"/><line x1="304" y1="300" x2="304" y2="348"/><rect x="380" y="322" width="28" height="140"/><circle cx="394" cy="372" r="6"/><circle cx="394" cy="392" r="6"/><rect x="383" y="415" width="22" height="26" rx="3"/><ellipse cx="394.0" cy="428.0" rx="6.6" ry="7.280000000000001"/><rect x="300" y="425" width="24" height="20"/><circle cx="312" cy="435" r="5"/><rect x="146" y="415" width="14" height="125" rx="2"/><rect x="150" y="470" width="10" height="15"/><rect x="240" y="652" width="165" height="115"/><line x1="252.69230769230768" y1="652" x2="252.69230769230768" y2="707.2"/><line x1="265.38461538461536" y1="652" x2="265.38461538461536" y2="707.2"/><line x1="278.0769230769231" y1="652" x2="278.0769230769231" y2="707.2"/><line x1="290.7692307692308" y1="652" x2="290.7692307692308" y2="707.2"/><line x1="303.46153846153845" y1="652" x2="303.46153846153845" y2="707.2"/><line x1="316.15384615384613" y1="652" x2="316.15384615384613" y2="707.2"/><line x1="328.8461538461538" y1="652" x2="328.8461538461538" y2="707.2"/><line x1="341.53846153846155" y1="652" x2="341.53846153846155" y2="707.2"/><line x1="354.2307692307692" y1="652" x2="354.2307692307692" y2="707.2"/><line x1="366.9230769230769" y1="652" x2="366.9230769230769" y2="707.2"/><line x1="379.61538461538464" y1="652" x2="379.61538461538464" y2="707.2"/><line x1="392.30769230769226" y1="652" x2="392.30769230769226" y2="707.2"/><line x1="240" y1="707.2" x2="405" y2="707.2"/><line x1="252.69230769230768" y1="711.8" x2="252.69230769230768" y2="767"/><line x1="265.38461538461536" y1="711.8" x2="265.38461538461536" y2="767"/><line x1="278.0769230769231" y1="711.8" x2="278.0769230769231" y2="767"/><line x1="290.7692307692308" y1="711.8" x2="290.7692307692308" y2="767"/><line x1="303.46153846153845" y1="711.8" x2="303.46153846153845" y2="767"/><line x1="316.15384615384613" y1="711.8" x2="316.15384615384613" y2="767"/><line x1="328.8461538461538" y1="711.8" x2="328.8461538461538" y2="767"/><line x1="341.53846153846155" y1="711.8" x2="341.53846153846155" y2="767"/><line x1="354.2307692307692" y1="711.8" x2="354.2307692307692" y2="767"/><line x1="366.9230769230769" y1="711.8" x2="366.9230769230769" y2="767"/><line x1="379.61538461538464" y1="711.8" x2="379.61538461538464" y2="767"/><line x1="392.30769230769226" y1="711.8" x2="392.30769230769226" y2="767"/><line x1="240" y1="711.8" x2="405" y2="711.8"/><g transform="translate(335 845) rotate(180)"><ellipse cx="0" cy="0" rx="7" ry="9"/><rect x="-8" y="-17" width="16" height="7" rx="2"/></g><rect x="355" y="790" width="18" height="24" rx="3"/><ellipse cx="364.0" cy="802.0" rx="5.3999999999999995" ry="6.720000000000001"/><rect x="262" y="870" width="70" height="8"/><rect x="45" y="955" width="18" height="50"/><line x1="47" y1="960" x2="61" y2="960"/><line x1="47" y1="965" x2="61" y2="965"/><line x1="47" y1="970" x2="61" y2="970"/><line x1="47" y1="975" x2="61" y2="975"/><line x1="47" y1="980" x2="61" y2="980"/><line x1="47" y1="985" x2="61" y2="985"/><line x1="47" y1="990" x2="61" y2="990"/><line x1="47" y1="995" x2="61" y2="995"/><line x1="47" y1="1000" x2="61" y2="1000"/><rect x="45" y="880" width="18" height="60"/><rect x="45" y="1035" width="40" height="35"/><rect x="45" y="1075" width="40" height="40"/><rect x="80" y="1090" width="25" height="30"/><rect x="84" y="1094" width="16" height="16" rx="3"/><ellipse cx="92.0" cy="1102.0" rx="4.8" ry="4.48"/><g transform="translate(490 0)"><rect x="110" y="62" width="32" height="20" rx="2"/><line x1="113" y1="72.0" x2="139" y2="72.0"/><rect x="158" y="62" width="32" height="20" rx="2"/><line x1="161" y1="72.0" x2="187" y2="72.0"/><rect x="208" y="62" width="32" height="20" rx="2"/><line x1="211" y1="72.0" x2="237" y2="72.0"/><rect x="258" y="62" width="32" height="20" rx="2"/><line x1="261" y1="72.0" x2="287" y2="72.0"/><rect x="425" y="60" width="15" height="22" rx="3"/><ellipse cx="432.5" cy="71.0" rx="4.5" ry="6.16"/><g transform="translate(432 120) rotate(-90)"><ellipse cx="0" cy="0" rx="7" ry="9"/><rect x="-8" y="-17" width="16" height="7" rx="2"/></g><rect x="425" y="190" width="15" height="22" rx="3"/><ellipse cx="432.5" cy="201.0" rx="4.5" ry="6.16"/><g transform="translate(432 270) rotate(-90)"><ellipse cx="0" cy="0" rx="7" ry="9"/><rect x="-8" y="-17" width="16" height="7" rx="2"/></g><rect x="420" y="215" width="20" height="40"/><rect x="105" y="185" width="22" height="14" rx="3"/><ellipse cx="116.0" cy="192.0" rx="6.6" ry="3.9200000000000004"/><g transform="translate(148 160) rotate(-90)"><ellipse cx="0" cy="0" rx="7" ry="9"/><rect x="-8" y="-17" width="16" height="7" rx="2"/></g><rect x="100" y="100" width="55" height="50"/><rect x="105" y="285" width="85" height="20"/><line x1="112" y1="287" x2="112" y2="303"/><line x1="119" y1="287" x2="119" y2="303"/><line x1="126" y1="287" x2="126" y2="303"/><line x1="133" y1="287" x2="133" y2="303"/><line x1="140" y1="287" x2="140" y2="303"/><line x1="147" y1="287" x2="147" y2="303"/><line x1="154" y1="287" x2="154" y2="303"/><line x1="161" y1="287" x2="161" y2="303"/><line x1="168" y1="287" x2="168" y2="303"/><line x1="175" y1="287" x2="175" y2="303"/><line x1="182" y1="287" x2="182" y2="303"/><rect x="405" y="150" width="12" height="100"/><line x1="407" y1="157" x2="415" y2="157"/><line x1="407" y1="164" x2="415" y2="164"/><line x1="407" y1="171" x2="415" y2="171"/><line x1="407" y1="178" x2="415" y2="178"/><line x1="407" y1="185" x2="415" y2="185"/><line x1="407" y1="192" x2="415" y2="192"/><line x1="407" y1="199" x2="415" y2="199"/><line x1="407" y1="206" x2="415" y2="206"/><line x1="407" y1="213" x2="415" y2="213"/><line x1="407" y1="220" x2="415" y2="220"/><line x1="407" y1="227" x2="415" y2="227"/><line x1="407" y1="234" x2="415" y2="234"/><line x1="407" y1="241" x2="415" y2="241"/><line x1="407" y1="248" x2="415" y2="248"/><rect x="330" y="280" width="88" height="20"/><line x1="337" y1="282" x2="337" y2="298"/><line x1="344" y1="282" x2="344" y2="298"/><line x1="351" y1="282" x2="351" y2="298"/><line x1="358" y1="282" x2="358" y2="298"/><line x1="365" y1="282" x2="365" y2="298"/><line x1="372" y1="282" x2="372" y2="298"/><line x1="379" y1="282" x2="379" y2="298"/><line x1="386" y1="282" x2="386" y2="298"/><line x1="393" y1="282" x2="393" y2="298"/><line x1="400" y1="282" x2="400" y2="298"/><line x1="407" y1="282" x2="407" y2="298"/><line x1="414" y1="282" x2="414" y2="298"/><rect x="345" y="322" width="110" height="8"/><rect x="248" y="355" width="20" height="75"/><line x1="250" y1="361" x2="266" y2="361"/><line x1="250" y1="367" x2="266" y2="367"/><line x1="250" y1="373" x2="266" y2="373"/><line x1="250" y1="379" x2="266" y2="379"/><line x1="250" y1="385" x2="266" y2="385"/><line x1="250" y1="391" x2="266" y2="391"/><line x1="250" y1="397" x2="266" y2="397"/><line x1="250" y1="403" x2="266" y2="403"/><line x1="250" y1="409" x2="266" y2="409"/><line x1="250" y1="415" x2="266" y2="415"/><line x1="250" y1="421" x2="266" y2="421"/><line x1="250" y1="427" x2="266" y2="427"/><rect x="318" y="355" width="20" height="75"/><line x1="320" y1="361" x2="336" y2="361"/><line x1="320" y1="367" x2="336" y2="367"/><line x1="320" y1="373" x2="336" y2="373"/><line x1="320" y1="379" x2="336" y2="379"/><line x1="320" y1="385" x2="336" y2="385"/><line x1="320" y1="391" x2="336" y2="391"/><line x1="320" y1="397" x2="336" y2="397"/><line x1="320" y1="403" x2="336" y2="403"/><line x1="320" y1="409" x2="336" y2="409"/><line x1="320" y1="415" x2="336" y2="415"/><line x1="320" y1="421" x2="336" y2="421"/><line x1="320" y1="427" x2="336" y2="427"/><rect x="292" y="440" width="102" height="45"/><rect x="290" y="655" width="165" height="118"/><line x1="302.6923076923077" y1="655" x2="302.6923076923077" y2="711.64"/><line x1="315.38461538461536" y1="655" x2="315.38461538461536" y2="711.64"/><line x1="328.0769230769231" y1="655" x2="328.0769230769231" y2="711.64"/><line x1="340.7692307692308" y1="655" x2="340.7692307692308" y2="711.64"/><line x1="353.46153846153845" y1="655" x2="353.46153846153845" y2="711.64"/><line x1="366.15384615384613" y1="655" x2="366.15384615384613" y2="711.64"/><line x1="378.8461538461538" y1="655" x2="378.8461538461538" y2="711.64"/><line x1="391.53846153846155" y1="655" x2="391.53846153846155" y2="711.64"/><line x1="404.2307692307692" y1="655" x2="404.2307692307692" y2="711.64"/><line x1="416.9230769230769" y1="655" x2="416.9230769230769" y2="711.64"/><line x1="429.61538461538464" y1="655" x2="429.61538461538464" y2="711.64"/><line x1="442.30769230769226" y1="655" x2="442.30769230769226" y2="711.64"/><line x1="290" y1="711.64" x2="455" y2="711.64"/><line x1="302.6923076923077" y1="716.36" x2="302.6923076923077" y2="773"/><line x1="315.38461538461536" y1="716.36" x2="315.38461538461536" y2="773"/><line x1="328.0769230769231" y1="716.36" x2="328.0769230769231" y2="773"/><line x1="340.7692307692308" y1="716.36" x2="340.7692307692308" y2="773"/><line x1="353.46153846153845" y1="716.36" x2="353.46153846153845" y2="773"/><line x1="366.15384615384613" y1="716.36" x2="366.15384615384613" y2="773"/><line x1="378.8461538461538" y1="716.36" x2="378.8461538461538" y2="773"/><line x1="391.53846153846155" y1="716.36" x2="391.53846153846155" y2="773"/><line x1="404.2307692307692" y1="716.36" x2="404.2307692307692" y2="773"/><line x1="416.9230769230769" y1="716.36" x2="416.9230769230769" y2="773"/><line x1="429.61538461538464" y1="716.36" x2="429.61538461538464" y2="773"/><line x1="442.30769230769226" y1="716.36" x2="442.30769230769226" y2="773"/><line x1="290" y1="716.36" x2="455" y2="716.36"/><rect x="380" y="783" width="30" height="8"/><rect x="95" y="880" width="90" height="22"/><rect x="105" y="884" width="18" height="14" rx="3"/><ellipse cx="114.0" cy="891.0" rx="5.3999999999999995" ry="3.9200000000000004"/><rect x="155" y="884" width="18" height="14" rx="3"/><ellipse cx="164.0" cy="891.0" rx="5.3999999999999995" ry="3.9200000000000004"/><ellipse cx="157" cy="985" rx="17" ry="32"/><ellipse cx="157" cy="985" rx="11" ry="25"/><g transform="translate(115 920) rotate(0)"><ellipse cx="0" cy="0" rx="7" ry="9"/><rect x="-8" y="-17" width="16" height="7" rx="2"/></g><rect x="96" y="940" width="10" height="70"/><rect x="95" y="1040" width="40" height="40"/><rect x="95" y="1085" width="40" height="40"/></g></g><g class="furn"><rect x="150" y="120" width="85" height="70" rx="3"/><rect x="154" y="124" width="36.5" height="9.8" rx="3"/><rect x="194.5" y="124" width="36.5" height="9.8" rx="3"/><line x1="150" y1="142.4" x2="235" y2="142.4"/><rect x="130" y="108" width="18" height="14"/><rect x="130" y="190" width="18" height="14"/><rect x="190" y="225" width="40" height="20" rx="2"/><rect x="230" y="415" width="112" height="60" rx="2"/><rect x="244.25" y="478" width="14" height="10" rx="2"/><rect x="266.75" y="478" width="14" height="10" rx="2"/><rect x="289.25" y="478" width="14" height="10" rx="2"/><rect x="311.75" y="478" width="14" height="10" rx="2"/><rect x="240" y="550" width="140" height="48" rx="2"/><rect x="249.0" y="537" width="12" height="10" rx="2"/><rect x="271.0" y="537" width="12" height="10" rx="2"/><rect x="293.0" y="537" width="12" height="10" rx="2"/><rect x="315.0" y="537" width="12" height="10" rx="2"/><rect x="337.0" y="537" width="12" height="10" rx="2"/><rect x="359.0" y="537" width="12" height="10" rx="2"/><rect x="249.0" y="601" width="12" height="10" rx="2"/><rect x="271.0" y="601" width="12" height="10" rx="2"/><rect x="293.0" y="601" width="12" height="10" rx="2"/><rect x="315.0" y="601" width="12" height="10" rx="2"/><rect x="337.0" y="601" width="12" height="10" rx="2"/><rect x="359.0" y="601" width="12" height="10" rx="2"/><rect x="232" y="560" width="8" height="12" rx="2"/><rect x="232" y="578" width="8" height="12" rx="2"/><rect x="380" y="560" width="8" height="12" rx="2"/><rect x="380" y="578" width="8" height="12" rx="2"/><rect x="222" y="888" width="150" height="125"/><rect x="255" y="905" width="48" height="22" rx="3"/><rect x="220" y="975" width="150" height="40" rx="4"/><rect x="225" y="980" width="140" height="30" rx="3"/><rect x="330" y="945" width="40" height="70" rx="4"/><rect x="335" y="950" width="30" height="60" rx="3"/><rect x="335" y="905" width="25" height="20" rx="2"/><rect x="100" y="885" width="45" height="90" rx="2"/><circle cx="155" cy="900" r="7"/><circle cx="155" cy="930" r="7"/><circle cx="155" cy="960" r="7"/><circle cx="165" cy="1075" r="22"/><circle cx="187.6" cy="1097.6" r="8"/><circle cx="142.4" cy="1097.6" r="8"/><circle cx="142.4" cy="1052.4" r="8"/><circle cx="187.6" cy="1052.4" r="8"/><rect x="265" y="1052" width="50" height="45"/><line x1="265" y1="1074" x2="315" y2="1074"/><line x1="290" y1="1052" x2="290" y2="1097"/><rect x="335" y="1035" width="58" height="82" rx="4"/><rect x="340" y="1040" width="48" height="72" rx="3"/><g transform="translate(490 0)"><rect x="190" y="122" width="95" height="90" rx="3"/><rect x="194" y="126" width="41.5" height="12.600000000000001" rx="3"/><rect x="239.5" y="126" width="41.5" height="12.600000000000001" rx="3"/><line x1="190" y1="150.8" x2="285" y2="150.8"/><rect x="270" y="110" width="16" height="14"/><rect x="270" y="200" width="16" height="14"/><rect x="185" y="210" width="50" height="20"/><line x1="240" y1="215" x2="240" y2="245"/><rect x="300" y="150" width="80" height="70" rx="3"/><rect x="364.8" y="154" width="11.200000000000001" height="29.0" rx="3"/><rect x="364.8" y="187.0" width="11.200000000000001" height="29.0" rx="3"/><line x1="354.4" y1="150" x2="354.4" y2="220"/><rect x="300" y="135" width="16" height="12"/><rect x="300" y="222" width="16" height="12"/><rect x="325" y="145" width="75" height="85"/><rect x="345" y="332" width="110" height="88" rx="3"/><rect x="435.6" y="336" width="15.400000000000002" height="38.0" rx="3"/><rect x="435.6" y="378.0" width="15.400000000000002" height="38.0" rx="3"/><line x1="419.8" y1="332" x2="419.8" y2="420"/><rect x="304.25" y="488" width="14" height="10" rx="2"/><rect x="326.75" y="488" width="14" height="10" rx="2"/><rect x="349.25" y="488" width="14" height="10" rx="2"/><rect x="371.75" y="488" width="14" height="10" rx="2"/><rect x="297" y="545" width="130" height="65" rx="2"/><rect x="305.1666666666667" y="532" width="12" height="10" rx="2"/><rect x="325.5" y="532" width="12" height="10" rx="2"/><rect x="345.83333333333337" y="532" width="12" height="10" rx="2"/><rect x="366.1666666666667" y="532" width="12" height="10" rx="2"/><rect x="386.5" y="532" width="12" height="10" rx="2"/><rect x="406.8333333333333" y="532" width="12" height="10" rx="2"/><rect x="305.1666666666667" y="613" width="12" height="10" rx="2"/><rect x="325.5" y="613" width="12" height="10" rx="2"/><rect x="345.83333333333337" y="613" width="12" height="10" rx="2"/><rect x="366.1666666666667" y="613" width="12" height="10" rx="2"/><rect x="386.5" y="613" width="12" height="10" rx="2"/><rect x="406.8333333333333" y="613" width="12" height="10" rx="2"/><rect x="265" y="825" width="115" height="35" rx="4"/><rect x="270" y="830" width="105" height="25" rx="3"/><rect x="275" y="910" width="165" height="90"/><rect x="305" y="890" width="112" height="105" rx="3"/><rect x="309" y="894" width="50.0" height="14.700000000000001" rx="3"/><rect x="363.0" y="894" width="50.0" height="14.700000000000001" rx="3"/><line x1="305" y1="923.6" x2="417" y2="923.6"/><rect x="283" y="890" width="16" height="14"/><rect x="428" y="885" width="10" height="10" rx="5"/><g transform="rotate(-18 225 993)"><rect x="210" y="978" width="30" height="30" rx="7"/><rect x="214" y="981" width="22" height="9" rx="3"/></g><g transform="rotate(20 257 975)"><rect x="245" y="963" width="24" height="24" rx="6"/></g><circle cx="215" cy="1080" r="22"/><circle cx="237.6" cy="1102.6" r="8"/><circle cx="192.4" cy="1102.6" r="8"/><circle cx="192.4" cy="1057.4" r="8"/><circle cx="237.6" cy="1057.4" r="8"/><rect x="318" y="1055" width="48" height="48"/><line x1="318" y1="1079" x2="366" y2="1079"/><line x1="342" y1="1055" x2="342" y2="1103"/><rect x="392" y="1040" width="45" height="82" rx="4"/><rect x="397" y="1045" width="35" height="72" rx="3"/></g></g><g class="soft"><path d="M390 480L399.0 480.0M390 480L396.4 486.4M390 480L390.0 489.0M390 480L383.6 486.4M390 480L381.0 480.0M390 480L383.6 473.6M390 480L390.0 471.0M390 480L396.4 473.6"/><circle cx="390" cy="480" r="4.05"/><path d="M390 628L399.0 628.0M390 628L396.4 634.4M390 628L390.0 637.0M390 628L383.6 634.4M390 628L381.0 628.0M390 628L383.6 621.6M390 628L390.0 619.0M390 628L396.4 621.6"/><circle cx="390" cy="628" r="4.05"/><path d="M250 850L256.0 850.0M250 850L254.2 854.2M250 850L250.0 856.0M250 850L245.8 854.2M250 850L244.0 850.0M250 850L245.8 845.8M250 850L250.0 844.0M250 850L254.2 845.8"/><circle cx="250" cy="850" r="2.7"/><path d="M275 850L281.0 850.0M275 850L279.2 854.2M275 850L275.0 856.0M275 850L270.8 854.2M275 850L269.0 850.0M275 850L270.8 845.8M275 850L275.0 844.0M275 850L279.2 845.8"/><circle cx="275" cy="850" r="2.7"/><path d="M298 850L304.0 850.0M298 850L302.2 854.2M298 850L298.0 856.0M298 850L293.8 854.2M298 850L292.0 850.0M298 850L293.8 845.8M298 850L298.0 844.0M298 850L302.2 845.8"/><circle cx="298" cy="850" r="2.7"/><path d="M385 995L393.0 995.0M385 995L390.7 1000.7M385 995L385.0 1003.0M385 995L379.3 1000.7M385 995L377.0 995.0M385 995L379.3 989.3M385 995L385.0 987.0M385 995L390.7 989.3"/><circle cx="385" cy="995" r="3.6"/><path d="M165 1075L173.0 1075.0M165 1075L170.7 1080.7M165 1075L165.0 1083.0M165 1075L159.3 1080.7M165 1075L157.0 1075.0M165 1075L159.3 1069.3M165 1075L165.0 1067.0M165 1075L170.7 1069.3"/><circle cx="165" cy="1075" r="3.6"/><g transform="translate(490 0)"><path d="M440 485L449.0 485.0M440 485L446.4 491.4M440 485L440.0 494.0M440 485L433.6 491.4M440 485L431.0 485.0M440 485L433.6 478.6M440 485L440.0 476.0M440 485L446.4 478.6"/><circle cx="440" cy="485" r="4.05"/><path d="M440 630L449.0 630.0M440 630L446.4 636.4M440 630L440.0 639.0M440 630L433.6 636.4M440 630L431.0 630.0M440 630L433.6 623.6M440 630L440.0 621.0M440 630L446.4 623.6"/><circle cx="440" cy="630" r="4.05"/><path d="M255 855L262.0 855.0M255 855L259.9 859.9M255 855L255.0 862.0M255 855L250.1 859.9M255 855L248.0 855.0M255 855L250.1 850.1M255 855L255.0 848.0M255 855L259.9 850.1"/><circle cx="255" cy="855" r="3.15"/><path d="M415 855L422.0 855.0M415 855L419.9 859.9M415 855L415.0 862.0M415 855L410.1 859.9M415 855L408.0 855.0M415 855L410.1 850.1M415 855L415.0 848.0M415 855L419.9 850.1"/><circle cx="415" cy="855" r="3.15"/><path d="M435 995L442.0 995.0M435 995L439.9 999.9M435 995L435.0 1002.0M435 995L430.1 999.9M435 995L428.0 995.0M435 995L430.1 990.1M435 995L435.0 988.0M435 995L439.9 990.1"/><circle cx="435" cy="995" r="3.15"/><path d="M215 1080L223.0 1080.0M215 1080L220.7 1085.7M215 1080L215.0 1088.0M215 1080L209.3 1085.7M215 1080L207.0 1080.0M215 1080L209.3 1074.3M215 1080L215.0 1072.0M215 1080L220.7 1074.3"/><circle cx="215" cy="1080" r="3.6"/></g></g><g class="glass"><line x1="435" y1="160" x2="435" y2="290"/><line x1="410" y1="330" x2="410" y2="630"/><line x1="400" y1="880" x2="400" y2="1020"/><line x1="90" y1="1028" x2="400" y2="1028"/><line x1="145" y1="420" x2="145" y2="540"/><g transform="translate(490 0)"><line x1="460" y1="330" x2="460" y2="770"/><line x1="441" y1="880" x2="441" y2="1025"/><line x1="140" y1="1033" x2="440" y2="1033"/></g></g></svg>